<?xml version="1.0"?>
<VTKFile type="UnstructuredGrid" version="0.1" byte_order="LittleEndian">
<UnstructuredGrid>
<Piece NumberOfPoints="1089" NumberOfCells="1024">
<Points>
<DataArray type="Float32" NumberOfComponents="3" format="ascii">
0 0 0.0
0.03125 0 0.0
0.0625 0 0.0
0.09375 0 0.0
0.125 0 0.0
0.15625 0 0.0
0.1875 0 0.0
0.21875 0 0.0
0.25 0 0.0
0.28125 0 0.0
0.3125 0 0.0
0.34375 0 0.0
0.375 0 0.0
0.40625 0 0.0
0.4375 0 0.0
0.46875 0 0.0
0.5 0 0.0
0.53125 0 0.0
0.5625 0 0.0
0.59375 0 0.0
0.625 0 0.0
0.65625 0 0.0
0.6875 0 0.0
0.71875 0 0.0
0.75 0 0.0
0.78125 0 0.0
0.8125 0 0.0
0.84375 0 0.0
0.875 0 0.0
0.90625 0 0.0
0.9375 0 0.0
0.96875 0 0.0
1 0 0.0
0 0.03125 0.0
0.03125 0.03125 0.0
0.0625 0.03125 0.0
0.09375 0.03125 0.0
0.125 0.03125 0.0
0.15625 0.03125 0.0
0.1875 0.03125 0.0
0.21875 0.03125 0.0
0.25 0.03125 0.0
0.28125 0.03125 0.0
0.3125 0.03125 0.0
0.34375 0.03125 0.0
0.375 0.03125 0.0
0.40625 0.03125 0.0
0.4375 0.03125 0.0
0.46875 0.03125 0.0
0.5 0.03125 0.0
0.53125 0.03125 0.0
0.5625 0.03125 0.0
0.59375 0.03125 0.0
0.625 0.03125 0.0
0.65625 0.03125 0.0
0.6875 0.03125 0.0
0.71875 0.03125 0.0
0.75 0.03125 0.0
0.78125 0.03125 0.0
0.8125 0.03125 0.0
0.84375 0.03125 0.0
0.875 0.03125 0.0
0.90625 0.03125 0.0
0.9375 0.03125 0.0
0.96875 0.03125 0.0
1 0.03125 0.0
0 0.0625 0.0
0.03125 0.0625 0.0
0.0625 0.0625 0.0
0.09375 0.0625 0.0
0.125 0.0625 0.0
0.15625 0.0625 0.0
0.1875 0.0625 0.0
0.21875 0.0625 0.0
0.25 0.0625 0.0
0.28125 0.0625 0.0
0.3125 0.0625 0.0
0.34375 0.0625 0.0
0.375 0.0625 0.0
0.40625 0.0625 0.0
0.4375 0.0625 0.0
0.46875 0.0625 0.0
0.5 0.0625 0.0
0.53125 0.0625 0.0
0.5625 0.0625 0.0
0.59375 0.0625 0.0
0.625 0.0625 0.0
0.65625 0.0625 0.0
0.6875 0.0625 0.0
0.71875 0.0625 0.0
0.75 0.0625 0.0
0.78125 0.0625 0.0
0.8125 0.0625 0.0
0.84375 0.0625 0.0
0.875 0.0625 0.0
0.90625 0.0625 0.0
0.9375 0.0625 0.0
0.96875 0.0625 0.0
1 0.0625 0.0
0 0.09375 0.0
0.03125 0.09375 0.0
0.0625 0.09375 0.0
0.09375 0.09375 0.0
0.125 0.09375 0.0
0.15625 0.09375 0.0
0.1875 0.09375 0.0
0.21875 0.09375 0.0
0.25 0.09375 0.0
0.28125 0.09375 0.0
0.3125 0.09375 0.0
0.34375 0.09375 0.0
0.375 0.09375 0.0
0.40625 0.09375 0.0
0.4375 0.09375 0.0
0.46875 0.09375 0.0
0.5 0.09375 0.0
0.53125 0.09375 0.0
0.5625 0.09375 0.0
0.59375 0.09375 0.0
0.625 0.09375 0.0
0.65625 0.09375 0.0
0.6875 0.09375 0.0
0.71875 0.09375 0.0
0.75 0.09375 0.0
0.78125 0.09375 0.0
0.8125 0.09375 0.0
0.84375 0.09375 0.0
0.875 0.09375 0.0
0.90625 0.09375 0.0
0.9375 0.09375 0.0
0.96875 0.09375 0.0
1 0.09375 0.0
0 0.125 0.0
0.03125 0.125 0.0
0.0625 0.125 0.0
0.09375 0.125 0.0
0.125 0.125 0.0
0.15625 0.125 0.0
0.1875 0.125 0.0
0.21875 0.125 0.0
0.25 0.125 0.0
0.28125 0.125 0.0
0.3125 0.125 0.0
0.34375 0.125 0.0
0.375 0.125 0.0
0.40625 0.125 0.0
0.4375 0.125 0.0
0.46875 0.125 0.0
0.5 0.125 0.0
0.53125 0.125 0.0
0.5625 0.125 0.0
0.59375 0.125 0.0
0.625 0.125 0.0
0.65625 0.125 0.0
0.6875 0.125 0.0
0.71875 0.125 0.0
0.75 0.125 0.0
0.78125 0.125 0.0
0.8125 0.125 0.0
0.84375 0.125 0.0
0.875 0.125 0.0
0.90625 0.125 0.0
0.9375 0.125 0.0
0.96875 0.125 0.0
1 0.125 0.0
0 0.15625 0.0
0.03125 0.15625 0.0
0.0625 0.15625 0.0
0.09375 0.15625 0.0
0.125 0.15625 0.0
0.15625 0.15625 0.0
0.1875 0.15625 0.0
0.21875 0.15625 0.0
0.25 0.15625 0.0
0.28125 0.15625 0.0
0.3125 0.15625 0.0
0.34375 0.15625 0.0
0.375 0.15625 0.0
0.40625 0.15625 0.0
0.4375 0.15625 0.0
0.46875 0.15625 0.0
0.5 0.15625 0.0
0.53125 0.15625 0.0
0.5625 0.15625 0.0
0.59375 0.15625 0.0
0.625 0.15625 0.0
0.65625 0.15625 0.0
0.6875 0.15625 0.0
0.71875 0.15625 0.0
0.75 0.15625 0.0
0.78125 0.15625 0.0
0.8125 0.15625 0.0
0.84375 0.15625 0.0
0.875 0.15625 0.0
0.90625 0.15625 0.0
0.9375 0.15625 0.0
0.96875 0.15625 0.0
1 0.15625 0.0
0 0.1875 0.0
0.03125 0.1875 0.0
0.0625 0.1875 0.0
0.09375 0.1875 0.0
0.125 0.1875 0.0
0.15625 0.1875 0.0
0.1875 0.1875 0.0
0.21875 0.1875 0.0
0.25 0.1875 0.0
0.28125 0.1875 0.0
0.3125 0.1875 0.0
0.34375 0.1875 0.0
0.375 0.1875 0.0
0.40625 0.1875 0.0
0.4375 0.1875 0.0
0.46875 0.1875 0.0
0.5 0.1875 0.0
0.53125 0.1875 0.0
0.5625 0.1875 0.0
0.59375 0.1875 0.0
0.625 0.1875 0.0
0.65625 0.1875 0.0
0.6875 0.1875 0.0
0.71875 0.1875 0.0
0.75 0.1875 0.0
0.78125 0.1875 0.0
0.8125 0.1875 0.0
0.84375 0.1875 0.0
0.875 0.1875 0.0
0.90625 0.1875 0.0
0.9375 0.1875 0.0
0.96875 0.1875 0.0
1 0.1875 0.0
0 0.21875 0.0
0.03125 0.21875 0.0
0.0625 0.21875 0.0
0.09375 0.21875 0.0
0.125 0.21875 0.0
0.15625 0.21875 0.0
0.1875 0.21875 0.0
0.21875 0.21875 0.0
0.25 0.21875 0.0
0.28125 0.21875 0.0
0.3125 0.21875 0.0
0.34375 0.21875 0.0
0.375 0.21875 0.0
0.40625 0.21875 0.0
0.4375 0.21875 0.0
0.46875 0.21875 0.0
0.5 0.21875 0.0
0.53125 0.21875 0.0
0.5625 0.21875 0.0
0.59375 0.21875 0.0
0.625 0.21875 0.0
0.65625 0.21875 0.0
0.6875 0.21875 0.0
0.71875 0.21875 0.0
0.75 0.21875 0.0
0.78125 0.21875 0.0
0.8125 0.21875 0.0
0.84375 0.21875 0.0
0.875 0.21875 0.0
0.90625 0.21875 0.0
0.9375 0.21875 0.0
0.96875 0.21875 0.0
1 0.21875 0.0
0 0.25 0.0
0.03125 0.25 0.0
0.0625 0.25 0.0
0.09375 0.25 0.0
0.125 0.25 0.0
0.15625 0.25 0.0
0.1875 0.25 0.0
0.21875 0.25 0.0
0.25 0.25 0.0
0.28125 0.25 0.0
0.3125 0.25 0.0
0.34375 0.25 0.0
0.375 0.25 0.0
0.40625 0.25 0.0
0.4375 0.25 0.0
0.46875 0.25 0.0
0.5 0.25 0.0
0.53125 0.25 0.0
0.5625 0.25 0.0
0.59375 0.25 0.0
0.625 0.25 0.0
0.65625 0.25 0.0
0.6875 0.25 0.0
0.71875 0.25 0.0
0.75 0.25 0.0
0.78125 0.25 0.0
0.8125 0.25 0.0
0.84375 0.25 0.0
0.875 0.25 0.0
0.90625 0.25 0.0
0.9375 0.25 0.0
0.96875 0.25 0.0
1 0.25 0.0
0 0.28125 0.0
0.03125 0.28125 0.0
0.0625 0.28125 0.0
0.09375 0.28125 0.0
0.125 0.28125 0.0
0.15625 0.28125 0.0
0.1875 0.28125 0.0
0.21875 0.28125 0.0
0.25 0.28125 0.0
0.28125 0.28125 0.0
0.3125 0.28125 0.0
0.34375 0.28125 0.0
0.375 0.28125 0.0
0.40625 0.28125 0.0
0.4375 0.28125 0.0
0.46875 0.28125 0.0
0.5 0.28125 0.0
0.53125 0.28125 0.0
0.5625 0.28125 0.0
0.59375 0.28125 0.0
0.625 0.28125 0.0
0.65625 0.28125 0.0
0.6875 0.28125 0.0
0.71875 0.28125 0.0
0.75 0.28125 0.0
0.78125 0.28125 0.0
0.8125 0.28125 0.0
0.84375 0.28125 0.0
0.875 0.28125 0.0
0.90625 0.28125 0.0
0.9375 0.28125 0.0
0.96875 0.28125 0.0
1 0.28125 0.0
0 0.3125 0.0
0.03125 0.3125 0.0
0.0625 0.3125 0.0
0.09375 0.3125 0.0
0.125 0.3125 0.0
0.15625 0.3125 0.0
0.1875 0.3125 0.0
0.21875 0.3125 0.0
0.25 0.3125 0.0
0.28125 0.3125 0.0
0.3125 0.3125 0.0
0.34375 0.3125 0.0
0.375 0.3125 0.0
0.40625 0.3125 0.0
0.4375 0.3125 0.0
0.46875 0.3125 0.0
0.5 0.3125 0.0
0.53125 0.3125 0.0
0.5625 0.3125 0.0
0.59375 0.3125 0.0
0.625 0.3125 0.0
0.65625 0.3125 0.0
0.6875 0.3125 0.0
0.71875 0.3125 0.0
0.75 0.3125 0.0
0.78125 0.3125 0.0
0.8125 0.3125 0.0
0.84375 0.3125 0.0
0.875 0.3125 0.0
0.90625 0.3125 0.0
0.9375 0.3125 0.0
0.96875 0.3125 0.0
1 0.3125 0.0
0 0.34375 0.0
0.03125 0.34375 0.0
0.0625 0.34375 0.0
0.09375 0.34375 0.0
0.125 0.34375 0.0
0.15625 0.34375 0.0
0.1875 0.34375 0.0
0.21875 0.34375 0.0
0.25 0.34375 0.0
0.28125 0.34375 0.0
0.3125 0.34375 0.0
0.34375 0.34375 0.0
0.375 0.34375 0.0
0.40625 0.34375 0.0
0.4375 0.34375 0.0
0.46875 0.34375 0.0
0.5 0.34375 0.0
0.53125 0.34375 0.0
0.5625 0.34375 0.0
0.59375 0.34375 0.0
0.625 0.34375 0.0
0.65625 0.34375 0.0
0.6875 0.34375 0.0
0.71875 0.34375 0.0
0.75 0.34375 0.0
0.78125 0.34375 0.0
0.8125 0.34375 0.0
0.84375 0.34375 0.0
0.875 0.34375 0.0
0.90625 0.34375 0.0
0.9375 0.34375 0.0
0.96875 0.34375 0.0
1 0.34375 0.0
0 0.375 0.0
0.03125 0.375 0.0
0.0625 0.375 0.0
0.09375 0.375 0.0
0.125 0.375 0.0
0.15625 0.375 0.0
0.1875 0.375 0.0
0.21875 0.375 0.0
0.25 0.375 0.0
0.28125 0.375 0.0
0.3125 0.375 0.0
0.34375 0.375 0.0
0.375 0.375 0.0
0.40625 0.375 0.0
0.4375 0.375 0.0
0.46875 0.375 0.0
0.5 0.375 0.0
0.53125 0.375 0.0
0.5625 0.375 0.0
0.59375 0.375 0.0
0.625 0.375 0.0
0.65625 0.375 0.0
0.6875 0.375 0.0
0.71875 0.375 0.0
0.75 0.375 0.0
0.78125 0.375 0.0
0.8125 0.375 0.0
0.84375 0.375 0.0
0.875 0.375 0.0
0.90625 0.375 0.0
0.9375 0.375 0.0
0.96875 0.375 0.0
1 0.375 0.0
0 0.40625 0.0
0.03125 0.40625 0.0
0.0625 0.40625 0.0
0.09375 0.40625 0.0
0.125 0.40625 0.0
0.15625 0.40625 0.0
0.1875 0.40625 0.0
0.21875 0.40625 0.0
0.25 0.40625 0.0
0.28125 0.40625 0.0
0.3125 0.40625 0.0
0.34375 0.40625 0.0
0.375 0.40625 0.0
0.40625 0.40625 0.0
0.4375 0.40625 0.0
0.46875 0.40625 0.0
0.5 0.40625 0.0
0.53125 0.40625 0.0
0.5625 0.40625 0.0
0.59375 0.40625 0.0
0.625 0.40625 0.0
0.65625 0.40625 0.0
0.6875 0.40625 0.0
0.71875 0.40625 0.0
0.75 0.40625 0.0
0.78125 0.40625 0.0
0.8125 0.40625 0.0
0.84375 0.40625 0.0
0.875 0.40625 0.0
0.90625 0.40625 0.0
0.9375 0.40625 0.0
0.96875 0.40625 0.0
1 0.40625 0.0
0 0.4375 0.0
0.03125 0.4375 0.0
0.0625 0.4375 0.0
0.09375 0.4375 0.0
0.125 0.4375 0.0
0.15625 0.4375 0.0
0.1875 0.4375 0.0
0.21875 0.4375 0.0
0.25 0.4375 0.0
0.28125 0.4375 0.0
0.3125 0.4375 0.0
0.34375 0.4375 0.0
0.375 0.4375 0.0
0.40625 0.4375 0.0
0.4375 0.4375 0.0
0.46875 0.4375 0.0
0.5 0.4375 0.0
0.53125 0.4375 0.0
0.5625 0.4375 0.0
0.59375 0.4375 0.0
0.625 0.4375 0.0
0.65625 0.4375 0.0
0.6875 0.4375 0.0
0.71875 0.4375 0.0
0.75 0.4375 0.0
0.78125 0.4375 0.0
0.8125 0.4375 0.0
0.84375 0.4375 0.0
0.875 0.4375 0.0
0.90625 0.4375 0.0
0.9375 0.4375 0.0
0.96875 0.4375 0.0
1 0.4375 0.0
0 0.46875 0.0
0.03125 0.46875 0.0
0.0625 0.46875 0.0
0.09375 0.46875 0.0
0.125 0.46875 0.0
0.15625 0.46875 0.0
0.1875 0.46875 0.0
0.21875 0.46875 0.0
0.25 0.46875 0.0
0.28125 0.46875 0.0
0.3125 0.46875 0.0
0.34375 0.46875 0.0
0.375 0.46875 0.0
0.40625 0.46875 0.0
0.4375 0.46875 0.0
0.46875 0.46875 0.0
0.5 0.46875 0.0
0.53125 0.46875 0.0
0.5625 0.46875 0.0
0.59375 0.46875 0.0
0.625 0.46875 0.0
0.65625 0.46875 0.0
0.6875 0.46875 0.0
0.71875 0.46875 0.0
0.75 0.46875 0.0
0.78125 0.46875 0.0
0.8125 0.46875 0.0
0.84375 0.46875 0.0
0.875 0.46875 0.0
0.90625 0.46875 0.0
0.9375 0.46875 0.0
0.96875 0.46875 0.0
1 0.46875 0.0
0 0.5 0.0
0.03125 0.5 0.0
0.0625 0.5 0.0
0.09375 0.5 0.0
0.125 0.5 0.0
0.15625 0.5 0.0
0.1875 0.5 0.0
0.21875 0.5 0.0
0.25 0.5 0.0
0.28125 0.5 0.0
0.3125 0.5 0.0
0.34375 0.5 0.0
0.375 0.5 0.0
0.40625 0.5 0.0
0.4375 0.5 0.0
0.46875 0.5 0.0
0.5 0.5 0.0
0.53125 0.5 0.0
0.5625 0.5 0.0
0.59375 0.5 0.0
0.625 0.5 0.0
0.65625 0.5 0.0
0.6875 0.5 0.0
0.71875 0.5 0.0
0.75 0.5 0.0
0.78125 0.5 0.0
0.8125 0.5 0.0
0.84375 0.5 0.0
0.875 0.5 0.0
0.90625 0.5 0.0
0.9375 0.5 0.0
0.96875 0.5 0.0
1 0.5 0.0
0 0.53125 0.0
0.03125 0.53125 0.0
0.0625 0.53125 0.0
0.09375 0.53125 0.0
0.125 0.53125 0.0
0.15625 0.53125 0.0
0.1875 0.53125 0.0
0.21875 0.53125 0.0
0.25 0.53125 0.0
0.28125 0.53125 0.0
0.3125 0.53125 0.0
0.34375 0.53125 0.0
0.375 0.53125 0.0
0.40625 0.53125 0.0
0.4375 0.53125 0.0
0.46875 0.53125 0.0
0.5 0.53125 0.0
0.53125 0.53125 0.0
0.5625 0.53125 0.0
0.59375 0.53125 0.0
0.625 0.53125 0.0
0.65625 0.53125 0.0
0.6875 0.53125 0.0
0.71875 0.53125 0.0
0.75 0.53125 0.0
0.78125 0.53125 0.0
0.8125 0.53125 0.0
0.84375 0.53125 0.0
0.875 0.53125 0.0
0.90625 0.53125 0.0
0.9375 0.53125 0.0
0.96875 0.53125 0.0
1 0.53125 0.0
0 0.5625 0.0
0.03125 0.5625 0.0
0.0625 0.5625 0.0
0.09375 0.5625 0.0
0.125 0.5625 0.0
0.15625 0.5625 0.0
0.1875 0.5625 0.0
0.21875 0.5625 0.0
0.25 0.5625 0.0
0.28125 0.5625 0.0
0.3125 0.5625 0.0
0.34375 0.5625 0.0
0.375 0.5625 0.0
0.40625 0.5625 0.0
0.4375 0.5625 0.0
0.46875 0.5625 0.0
0.5 0.5625 0.0
0.53125 0.5625 0.0
0.5625 0.5625 0.0
0.59375 0.5625 0.0
0.625 0.5625 0.0
0.65625 0.5625 0.0
0.6875 0.5625 0.0
0.71875 0.5625 0.0
0.75 0.5625 0.0
0.78125 0.5625 0.0
0.8125 0.5625 0.0
0.84375 0.5625 0.0
0.875 0.5625 0.0
0.90625 0.5625 0.0
0.9375 0.5625 0.0
0.96875 0.5625 0.0
1 0.5625 0.0
0 0.59375 0.0
0.03125 0.59375 0.0
0.0625 0.59375 0.0
0.09375 0.59375 0.0
0.125 0.59375 0.0
0.15625 0.59375 0.0
0.1875 0.59375 0.0
0.21875 0.59375 0.0
0.25 0.59375 0.0
0.28125 0.59375 0.0
0.3125 0.59375 0.0
0.34375 0.59375 0.0
0.375 0.59375 0.0
0.40625 0.59375 0.0
0.4375 0.59375 0.0
0.46875 0.59375 0.0
0.5 0.59375 0.0
0.53125 0.59375 0.0
0.5625 0.59375 0.0
0.59375 0.59375 0.0
0.625 0.59375 0.0
0.65625 0.59375 0.0
0.6875 0.59375 0.0
0.71875 0.59375 0.0
0.75 0.59375 0.0
0.78125 0.59375 0.0
0.8125 0.59375 0.0
0.84375 0.59375 0.0
0.875 0.59375 0.0
0.90625 0.59375 0.0
0.9375 0.59375 0.0
0.96875 0.59375 0.0
1 0.59375 0.0
0 0.625 0.0
0.03125 0.625 0.0
0.0625 0.625 0.0
0.09375 0.625 0.0
0.125 0.625 0.0
0.15625 0.625 0.0
0.1875 0.625 0.0
0.21875 0.625 0.0
0.25 0.625 0.0
0.28125 0.625 0.0
0.3125 0.625 0.0
0.34375 0.625 0.0
0.375 0.625 0.0
0.40625 0.625 0.0
0.4375 0.625 0.0
0.46875 0.625 0.0
0.5 0.625 0.0
0.53125 0.625 0.0
0.5625 0.625 0.0
0.59375 0.625 0.0
0.625 0.625 0.0
0.65625 0.625 0.0
0.6875 0.625 0.0
0.71875 0.625 0.0
0.75 0.625 0.0
0.78125 0.625 0.0
0.8125 0.625 0.0
0.84375 0.625 0.0
0.875 0.625 0.0
0.90625 0.625 0.0
0.9375 0.625 0.0
0.96875 0.625 0.0
1 0.625 0.0
0 0.65625 0.0
0.03125 0.65625 0.0
0.0625 0.65625 0.0
0.09375 0.65625 0.0
0.125 0.65625 0.0
0.15625 0.65625 0.0
0.1875 0.65625 0.0
0.21875 0.65625 0.0
0.25 0.65625 0.0
0.28125 0.65625 0.0
0.3125 0.65625 0.0
0.34375 0.65625 0.0
0.375 0.65625 0.0
0.40625 0.65625 0.0
0.4375 0.65625 0.0
0.46875 0.65625 0.0
0.5 0.65625 0.0
0.53125 0.65625 0.0
0.5625 0.65625 0.0
0.59375 0.65625 0.0
0.625 0.65625 0.0
0.65625 0.65625 0.0
0.6875 0.65625 0.0
0.71875 0.65625 0.0
0.75 0.65625 0.0
0.78125 0.65625 0.0
0.8125 0.65625 0.0
0.84375 0.65625 0.0
0.875 0.65625 0.0
0.90625 0.65625 0.0
0.9375 0.65625 0.0
0.96875 0.65625 0.0
1 0.65625 0.0
0 0.6875 0.0
0.03125 0.6875 0.0
0.0625 0.6875 0.0
0.09375 0.6875 0.0
0.125 0.6875 0.0
0.15625 0.6875 0.0
0.1875 0.6875 0.0
0.21875 0.6875 0.0
0.25 0.6875 0.0
0.28125 0.6875 0.0
0.3125 0.6875 0.0
0.34375 0.6875 0.0
0.375 0.6875 0.0
0.40625 0.6875 0.0
0.4375 0.6875 0.0
0.46875 0.6875 0.0
0.5 0.6875 0.0
0.53125 0.6875 0.0
0.5625 0.6875 0.0
0.59375 0.6875 0.0
0.625 0.6875 0.0
0.65625 0.6875 0.0
0.6875 0.6875 0.0
0.71875 0.6875 0.0
0.75 0.6875 0.0
0.78125 0.6875 0.0
0.8125 0.6875 0.0
0.84375 0.6875 0.0
0.875 0.6875 0.0
0.90625 0.6875 0.0
0.9375 0.6875 0.0
0.96875 0.6875 0.0
1 0.6875 0.0
0 0.71875 0.0
0.03125 0.71875 0.0
0.0625 0.71875 0.0
0.09375 0.71875 0.0
0.125 0.71875 0.0
0.15625 0.71875 0.0
0.1875 0.71875 0.0
0.21875 0.71875 0.0
0.25 0.71875 0.0
0.28125 0.71875 0.0
0.3125 0.71875 0.0
0.34375 0.71875 0.0
0.375 0.71875 0.0
0.40625 0.71875 0.0
0.4375 0.71875 0.0
0.46875 0.71875 0.0
0.5 0.71875 0.0
0.53125 0.71875 0.0
0.5625 0.71875 0.0
0.59375 0.71875 0.0
0.625 0.71875 0.0
0.65625 0.71875 0.0
0.6875 0.71875 0.0
0.71875 0.71875 0.0
0.75 0.71875 0.0
0.78125 0.71875 0.0
0.8125 0.71875 0.0
0.84375 0.71875 0.0
0.875 0.71875 0.0
0.90625 0.71875 0.0
0.9375 0.71875 0.0
0.96875 0.71875 0.0
1 0.71875 0.0
0 0.75 0.0
0.03125 0.75 0.0
0.0625 0.75 0.0
0.09375 0.75 0.0
0.125 0.75 0.0
0.15625 0.75 0.0
0.1875 0.75 0.0
0.21875 0.75 0.0
0.25 0.75 0.0
0.28125 0.75 0.0
0.3125 0.75 0.0
0.34375 0.75 0.0
0.375 0.75 0.0
0.40625 0.75 0.0
0.4375 0.75 0.0
0.46875 0.75 0.0
0.5 0.75 0.0
0.53125 0.75 0.0
0.5625 0.75 0.0
0.59375 0.75 0.0
0.625 0.75 0.0
0.65625 0.75 0.0
0.6875 0.75 0.0
0.71875 0.75 0.0
0.75 0.75 0.0
0.78125 0.75 0.0
0.8125 0.75 0.0
0.84375 0.75 0.0
0.875 0.75 0.0
0.90625 0.75 0.0
0.9375 0.75 0.0
0.96875 0.75 0.0
1 0.75 0.0
0 0.78125 0.0
0.03125 0.78125 0.0
0.0625 0.78125 0.0
0.09375 0.78125 0.0
0.125 0.78125 0.0
0.15625 0.78125 0.0
0.1875 0.78125 0.0
0.21875 0.78125 0.0
0.25 0.78125 0.0
0.28125 0.78125 0.0
0.3125 0.78125 0.0
0.34375 0.78125 0.0
0.375 0.78125 0.0
0.40625 0.78125 0.0
0.4375 0.78125 0.0
0.46875 0.78125 0.0
0.5 0.78125 0.0
0.53125 0.78125 0.0
0.5625 0.78125 0.0
0.59375 0.78125 0.0
0.625 0.78125 0.0
0.65625 0.78125 0.0
0.6875 0.78125 0.0
0.71875 0.78125 0.0
0.75 0.78125 0.0
0.78125 0.78125 0.0
0.8125 0.78125 0.0
0.84375 0.78125 0.0
0.875 0.78125 0.0
0.90625 0.78125 0.0
0.9375 0.78125 0.0
0.96875 0.78125 0.0
1 0.78125 0.0
0 0.8125 0.0
0.03125 0.8125 0.0
0.0625 0.8125 0.0
0.09375 0.8125 0.0
0.125 0.8125 0.0
0.15625 0.8125 0.0
0.1875 0.8125 0.0
0.21875 0.8125 0.0
0.25 0.8125 0.0
0.28125 0.8125 0.0
0.3125 0.8125 0.0
0.34375 0.8125 0.0
0.375 0.8125 0.0
0.40625 0.8125 0.0
0.4375 0.8125 0.0
0.46875 0.8125 0.0
0.5 0.8125 0.0
0.53125 0.8125 0.0
0.5625 0.8125 0.0
0.59375 0.8125 0.0
0.625 0.8125 0.0
0.65625 0.8125 0.0
0.6875 0.8125 0.0
0.71875 0.8125 0.0
0.75 0.8125 0.0
0.78125 0.8125 0.0
0.8125 0.8125 0.0
0.84375 0.8125 0.0
0.875 0.8125 0.0
0.90625 0.8125 0.0
0.9375 0.8125 0.0
0.96875 0.8125 0.0
1 0.8125 0.0
0 0.84375 0.0
0.03125 0.84375 0.0
0.0625 0.84375 0.0
0.09375 0.84375 0.0
0.125 0.84375 0.0
0.15625 0.84375 0.0
0.1875 0.84375 0.0
0.21875 0.84375 0.0
0.25 0.84375 0.0
0.28125 0.84375 0.0
0.3125 0.84375 0.0
0.34375 0.84375 0.0
0.375 0.84375 0.0
0.40625 0.84375 0.0
0.4375 0.84375 0.0
0.46875 0.84375 0.0
0.5 0.84375 0.0
0.53125 0.84375 0.0
0.5625 0.84375 0.0
0.59375 0.84375 0.0
0.625 0.84375 0.0
0.65625 0.84375 0.0
0.6875 0.84375 0.0
0.71875 0.84375 0.0
0.75 0.84375 0.0
0.78125 0.84375 0.0
0.8125 0.84375 0.0
0.84375 0.84375 0.0
0.875 0.84375 0.0
0.90625 0.84375 0.0
0.9375 0.84375 0.0
0.96875 0.84375 0.0
1 0.84375 0.0
0 0.875 0.0
0.03125 0.875 0.0
0.0625 0.875 0.0
0.09375 0.875 0.0
0.125 0.875 0.0
0.15625 0.875 0.0
0.1875 0.875 0.0
0.21875 0.875 0.0
0.25 0.875 0.0
0.28125 0.875 0.0
0.3125 0.875 0.0
0.34375 0.875 0.0
0.375 0.875 0.0
0.40625 0.875 0.0
0.4375 0.875 0.0
0.46875 0.875 0.0
0.5 0.875 0.0
0.53125 0.875 0.0
0.5625 0.875 0.0
0.59375 0.875 0.0
0.625 0.875 0.0
0.65625 0.875 0.0
0.6875 0.875 0.0
0.71875 0.875 0.0
0.75 0.875 0.0
0.78125 0.875 0.0
0.8125 0.875 0.0
0.84375 0.875 0.0
0.875 0.875 0.0
0.90625 0.875 0.0
0.9375 0.875 0.0
0.96875 0.875 0.0
1 0.875 0.0
0 0.90625 0.0
0.03125 0.90625 0.0
0.0625 0.90625 0.0
0.09375 0.90625 0.0
0.125 0.90625 0.0
0.15625 0.90625 0.0
0.1875 0.90625 0.0
0.21875 0.90625 0.0
0.25 0.90625 0.0
0.28125 0.90625 0.0
0.3125 0.90625 0.0
0.34375 0.90625 0.0
0.375 0.90625 0.0
0.40625 0.90625 0.0
0.4375 0.90625 0.0
0.46875 0.90625 0.0
0.5 0.90625 0.0
0.53125 0.90625 0.0
0.5625 0.90625 0.0
0.59375 0.90625 0.0
0.625 0.90625 0.0
0.65625 0.90625 0.0
0.6875 0.90625 0.0
0.71875 0.90625 0.0
0.75 0.90625 0.0
0.78125 0.90625 0.0
0.8125 0.90625 0.0
0.84375 0.90625 0.0
0.875 0.90625 0.0
0.90625 0.90625 0.0
0.9375 0.90625 0.0
0.96875 0.90625 0.0
1 0.90625 0.0
0 0.9375 0.0
0.03125 0.9375 0.0
0.0625 0.9375 0.0
0.09375 0.9375 0.0
0.125 0.9375 0.0
0.15625 0.9375 0.0
0.1875 0.9375 0.0
0.21875 0.9375 0.0
0.25 0.9375 0.0
0.28125 0.9375 0.0
0.3125 0.9375 0.0
0.34375 0.9375 0.0
0.375 0.9375 0.0
0.40625 0.9375 0.0
0.4375 0.9375 0.0
0.46875 0.9375 0.0
0.5 0.9375 0.0
0.53125 0.9375 0.0
0.5625 0.9375 0.0
0.59375 0.9375 0.0
0.625 0.9375 0.0
0.65625 0.9375 0.0
0.6875 0.9375 0.0
0.71875 0.9375 0.0
0.75 0.9375 0.0
0.78125 0.9375 0.0
0.8125 0.9375 0.0
0.84375 0.9375 0.0
0.875 0.9375 0.0
0.90625 0.9375 0.0
0.9375 0.9375 0.0
0.96875 0.9375 0.0
1 0.9375 0.0
0 0.96875 0.0
0.03125 0.96875 0.0
0.0625 0.96875 0.0
0.09375 0.96875 0.0
0.125 0.96875 0.0
0.15625 0.96875 0.0
0.1875 0.96875 0.0
0.21875 0.96875 0.0
0.25 0.96875 0.0
0.28125 0.96875 0.0
0.3125 0.96875 0.0
0.34375 0.96875 0.0
0.375 0.96875 0.0
0.40625 0.96875 0.0
0.4375 0.96875 0.0
0.46875 0.96875 0.0
0.5 0.96875 0.0
0.53125 0.96875 0.0
0.5625 0.96875 0.0
0.59375 0.96875 0.0
0.625 0.96875 0.0
0.65625 0.96875 0.0
0.6875 0.96875 0.0
0.71875 0.96875 0.0
0.75 0.96875 0.0
0.78125 0.96875 0.0
0.8125 0.96875 0.0
0.84375 0.96875 0.0
0.875 0.96875 0.0
0.90625 0.96875 0.0
0.9375 0.96875 0.0
0.96875 0.96875 0.0
1 0.96875 0.0
0 1 0.0
0.03125 1 0.0
0.0625 1 0.0
0.09375 1 0.0
0.125 1 0.0
0.15625 1 0.0
0.1875 1 0.0
0.21875 1 0.0
0.25 1 0.0
0.28125 1 0.0
0.3125 1 0.0
0.34375 1 0.0
0.375 1 0.0
0.40625 1 0.0
0.4375 1 0.0
0.46875 1 0.0
0.5 1 0.0
0.53125 1 0.0
0.5625 1 0.0
0.59375 1 0.0
0.625 1 0.0
0.65625 1 0.0
0.6875 1 0.0
0.71875 1 0.0
0.75 1 0.0
0.78125 1 0.0
0.8125 1 0.0
0.84375 1 0.0
0.875 1 0.0
0.90625 1 0.0
0.9375 1 0.0
0.96875 1 0.0
1 1 0.0
</DataArray>
</Points>
<Cells>
<DataArray type="Int32" Name="connectivity" format="ascii">
0 1 34 33 
1 2 35 34 
2 3 36 35 
3 4 37 36 
4 5 38 37 
5 6 39 38 
6 7 40 39 
7 8 41 40 
8 9 42 41 
9 10 43 42 
10 11 44 43 
11 12 45 44 
12 13 46 45 
13 14 47 46 
14 15 48 47 
15 16 49 48 
16 17 50 49 
17 18 51 50 
18 19 52 51 
19 20 53 52 
20 21 54 53 
21 22 55 54 
22 23 56 55 
23 24 57 56 
24 25 58 57 
25 26 59 58 
26 27 60 59 
27 28 61 60 
28 29 62 61 
29 30 63 62 
30 31 64 63 
31 32 65 64 
33 34 67 66 
34 35 68 67 
35 36 69 68 
36 37 70 69 
37 38 71 70 
38 39 72 71 
39 40 73 72 
40 41 74 73 
41 42 75 74 
42 43 76 75 
43 44 77 76 
44 45 78 77 
45 46 79 78 
46 47 80 79 
47 48 81 80 
48 49 82 81 
49 50 83 82 
50 51 84 83 
51 52 85 84 
52 53 86 85 
53 54 87 86 
54 55 88 87 
55 56 89 88 
56 57 90 89 
57 58 91 90 
58 59 92 91 
59 60 93 92 
60 61 94 93 
61 62 95 94 
62 63 96 95 
63 64 97 96 
64 65 98 97 
66 67 100 99 
67 68 101 100 
68 69 102 101 
69 70 103 102 
70 71 104 103 
71 72 105 104 
72 73 106 105 
73 74 107 106 
74 75 108 107 
75 76 109 108 
76 77 110 109 
77 78 111 110 
78 79 112 111 
79 80 113 112 
80 81 114 113 
81 82 115 114 
82 83 116 115 
83 84 117 116 
84 85 118 117 
85 86 119 118 
86 87 120 119 
87 88 121 120 
88 89 122 121 
89 90 123 122 
90 91 124 123 
91 92 125 124 
92 93 126 125 
93 94 127 126 
94 95 128 127 
95 96 129 128 
96 97 130 129 
97 98 131 130 
99 100 133 132 
100 101 134 133 
101 102 135 134 
102 103 136 135 
103 104 137 136 
104 105 138 137 
105 106 139 138 
106 107 140 139 
107 108 141 140 
108 109 142 141 
109 110 143 142 
110 111 144 143 
111 112 145 144 
112 113 146 145 
113 114 147 146 
114 115 148 147 
115 116 149 148 
116 117 150 149 
117 118 151 150 
118 119 152 151 
119 120 153 152 
120 121 154 153 
121 122 155 154 
122 123 156 155 
123 124 157 156 
124 125 158 157 
125 126 159 158 
126 127 160 159 
127 128 161 160 
128 129 162 161 
129 130 163 162 
130 131 164 163 
132 133 166 165 
133 134 167 166 
134 135 168 167 
135 136 169 168 
136 137 170 169 
137 138 171 170 
138 139 172 171 
139 140 173 172 
140 141 174 173 
141 142 175 174 
142 143 176 175 
143 144 177 176 
144 145 178 177 
145 146 179 178 
146 147 180 179 
147 148 181 180 
148 149 182 181 
149 150 183 182 
150 151 184 183 
151 152 185 184 
152 153 186 185 
153 154 187 186 
154 155 188 187 
155 156 189 188 
156 157 190 189 
157 158 191 190 
158 159 192 191 
159 160 193 192 
160 161 194 193 
161 162 195 194 
162 163 196 195 
163 164 197 196 
165 166 199 198 
166 167 200 199 
167 168 201 200 
168 169 202 201 
169 170 203 202 
170 171 204 203 
171 172 205 204 
172 173 206 205 
173 174 207 206 
174 175 208 207 
175 176 209 208 
176 177 210 209 
177 178 211 210 
178 179 212 211 
179 180 213 212 
180 181 214 213 
181 182 215 214 
182 183 216 215 
183 184 217 216 
184 185 218 217 
185 186 219 218 
186 187 220 219 
187 188 221 220 
188 189 222 221 
189 190 223 222 
190 191 224 223 
191 192 225 224 
192 193 226 225 
193 194 227 226 
194 195 228 227 
195 196 229 228 
196 197 230 229 
198 199 232 231 
199 200 233 232 
200 201 234 233 
201 202 235 234 
202 203 236 235 
203 204 237 236 
204 205 238 237 
205 206 239 238 
206 207 240 239 
207 208 241 240 
208 209 242 241 
209 210 243 242 
210 211 244 243 
211 212 245 244 
212 213 246 245 
213 214 247 246 
214 215 248 247 
215 216 249 248 
216 217 250 249 
217 218 251 250 
218 219 252 251 
219 220 253 252 
220 221 254 253 
221 222 255 254 
222 223 256 255 
223 224 257 256 
224 225 258 257 
225 226 259 258 
226 227 260 259 
227 228 261 260 
228 229 262 261 
229 230 263 262 
231 232 265 264 
232 233 266 265 
233 234 267 266 
234 235 268 267 
235 236 269 268 
236 237 270 269 
237 238 271 270 
238 239 272 271 
239 240 273 272 
240 241 274 273 
241 242 275 274 
242 243 276 275 
243 244 277 276 
244 245 278 277 
245 246 279 278 
246 247 280 279 
247 248 281 280 
248 249 282 281 
249 250 283 282 
250 251 284 283 
251 252 285 284 
252 253 286 285 
253 254 287 286 
254 255 288 287 
255 256 289 288 
256 257 290 289 
257 258 291 290 
258 259 292 291 
259 260 293 292 
260 261 294 293 
261 262 295 294 
262 263 296 295 
264 265 298 297 
265 266 299 298 
266 267 300 299 
267 268 301 300 
268 269 302 301 
269 270 303 302 
270 271 304 303 
271 272 305 304 
272 273 306 305 
273 274 307 306 
274 275 308 307 
275 276 309 308 
276 277 310 309 
277 278 311 310 
278 279 312 311 
279 280 313 312 
280 281 314 313 
281 282 315 314 
282 283 316 315 
283 284 317 316 
284 285 318 317 
285 286 319 318 
286 287 320 319 
287 288 321 320 
288 289 322 321 
289 290 323 322 
290 291 324 323 
291 292 325 324 
292 293 326 325 
293 294 327 326 
294 295 328 327 
295 296 329 328 
297 298 331 330 
298 299 332 331 
299 300 333 332 
300 301 334 333 
301 302 335 334 
302 303 336 335 
303 304 337 336 
304 305 338 337 
305 306 339 338 
306 307 340 339 
307 308 341 340 
308 309 342 341 
309 310 343 342 
310 311 344 343 
311 312 345 344 
312 313 346 345 
313 314 347 346 
314 315 348 347 
315 316 349 348 
316 317 350 349 
317 318 351 350 
318 319 352 351 
319 320 353 352 
320 321 354 353 
321 322 355 354 
322 323 356 355 
323 324 357 356 
324 325 358 357 
325 326 359 358 
326 327 360 359 
327 328 361 360 
328 329 362 361 
330 331 364 363 
331 332 365 364 
332 333 366 365 
333 334 367 366 
334 335 368 367 
335 336 369 368 
336 337 370 369 
337 338 371 370 
338 339 372 371 
339 340 373 372 
340 341 374 373 
341 342 375 374 
342 343 376 375 
343 344 377 376 
344 345 378 377 
345 346 379 378 
346 347 380 379 
347 348 381 380 
348 349 382 381 
349 350 383 382 
350 351 384 383 
351 352 385 384 
352 353 386 385 
353 354 387 386 
354 355 388 387 
355 356 389 388 
356 357 390 389 
357 358 391 390 
358 359 392 391 
359 360 393 392 
360 361 394 393 
361 362 395 394 
363 364 397 396 
364 365 398 397 
365 366 399 398 
366 367 400 399 
367 368 401 400 
368 369 402 401 
369 370 403 402 
370 371 404 403 
371 372 405 404 
372 373 406 405 
373 374 407 406 
374 375 408 407 
375 376 409 408 
376 377 410 409 
377 378 411 410 
378 379 412 411 
379 380 413 412 
380 381 414 413 
381 382 415 414 
382 383 416 415 
383 384 417 416 
384 385 418 417 
385 386 419 418 
386 387 420 419 
387 388 421 420 
388 389 422 421 
389 390 423 422 
390 391 424 423 
391 392 425 424 
392 393 426 425 
393 394 427 426 
394 395 428 427 
396 397 430 429 
397 398 431 430 
398 399 432 431 
399 400 433 432 
400 401 434 433 
401 402 435 434 
402 403 436 435 
403 404 437 436 
404 405 438 437 
405 406 439 438 
406 407 440 439 
407 408 441 440 
408 409 442 441 
409 410 443 442 
410 411 444 443 
411 412 445 444 
412 413 446 445 
413 414 447 446 
414 415 448 447 
415 416 449 448 
416 417 450 449 
417 418 451 450 
418 419 452 451 
419 420 453 452 
420 421 454 453 
421 422 455 454 
422 423 456 455 
423 424 457 456 
424 425 458 457 
425 426 459 458 
426 427 460 459 
427 428 461 460 
429 430 463 462 
430 431 464 463 
431 432 465 464 
432 433 466 465 
433 434 467 466 
434 435 468 467 
435 436 469 468 
436 437 470 469 
437 438 471 470 
438 439 472 471 
439 440 473 472 
440 441 474 473 
441 442 475 474 
442 443 476 475 
443 444 477 476 
444 445 478 477 
445 446 479 478 
446 447 480 479 
447 448 481 480 
448 449 482 481 
449 450 483 482 
450 451 484 483 
451 452 485 484 
452 453 486 485 
453 454 487 486 
454 455 488 487 
455 456 489 488 
456 457 490 489 
457 458 491 490 
458 459 492 491 
459 460 493 492 
460 461 494 493 
462 463 496 495 
463 464 497 496 
464 465 498 497 
465 466 499 498 
466 467 500 499 
467 468 501 500 
468 469 502 501 
469 470 503 502 
470 471 504 503 
471 472 505 504 
472 473 506 505 
473 474 507 506 
474 475 508 507 
475 476 509 508 
476 477 510 509 
477 478 511 510 
478 479 512 511 
479 480 513 512 
480 481 514 513 
481 482 515 514 
482 483 516 515 
483 484 517 516 
484 485 518 517 
485 486 519 518 
486 487 520 519 
487 488 521 520 
488 489 522 521 
489 490 523 522 
490 491 524 523 
491 492 525 524 
492 493 526 525 
493 494 527 526 
495 496 529 528 
496 497 530 529 
497 498 531 530 
498 499 532 531 
499 500 533 532 
500 501 534 533 
501 502 535 534 
502 503 536 535 
503 504 537 536 
504 505 538 537 
505 506 539 538 
506 507 540 539 
507 508 541 540 
508 509 542 541 
509 510 543 542 
510 511 544 543 
511 512 545 544 
512 513 546 545 
513 514 547 546 
514 515 548 547 
515 516 549 548 
516 517 550 549 
517 518 551 550 
518 519 552 551 
519 520 553 552 
520 521 554 553 
521 522 555 554 
522 523 556 555 
523 524 557 556 
524 525 558 557 
525 526 559 558 
526 527 560 559 
528 529 562 561 
529 530 563 562 
530 531 564 563 
531 532 565 564 
532 533 566 565 
533 534 567 566 
534 535 568 567 
535 536 569 568 
536 537 570 569 
537 538 571 570 
538 539 572 571 
539 540 573 572 
540 541 574 573 
541 542 575 574 
542 543 576 575 
543 544 577 576 
544 545 578 577 
545 546 579 578 
546 547 580 579 
547 548 581 580 
548 549 582 581 
549 550 583 582 
550 551 584 583 
551 552 585 584 
552 553 586 585 
553 554 587 586 
554 555 588 587 
555 556 589 588 
556 557 590 589 
557 558 591 590 
558 559 592 591 
559 560 593 592 
561 562 595 594 
562 563 596 595 
563 564 597 596 
564 565 598 597 
565 566 599 598 
566 567 600 599 
567 568 601 600 
568 569 602 601 
569 570 603 602 
570 571 604 603 
571 572 605 604 
572 573 606 605 
573 574 607 606 
574 575 608 607 
575 576 609 608 
576 577 610 609 
577 578 611 610 
578 579 612 611 
579 580 613 612 
580 581 614 613 
581 582 615 614 
582 583 616 615 
583 584 617 616 
584 585 618 617 
585 586 619 618 
586 587 620 619 
587 588 621 620 
588 589 622 621 
589 590 623 622 
590 591 624 623 
591 592 625 624 
592 593 626 625 
594 595 628 627 
595 596 629 628 
596 597 630 629 
597 598 631 630 
598 599 632 631 
599 600 633 632 
600 601 634 633 
601 602 635 634 
602 603 636 635 
603 604 637 636 
604 605 638 637 
605 606 639 638 
606 607 640 639 
607 608 641 640 
608 609 642 641 
609 610 643 642 
610 611 644 643 
611 612 645 644 
612 613 646 645 
613 614 647 646 
614 615 648 647 
615 616 649 648 
616 617 650 649 
617 618 651 650 
618 619 652 651 
619 620 653 652 
620 621 654 653 
621 622 655 654 
622 623 656 655 
623 624 657 656 
624 625 658 657 
625 626 659 658 
627 628 661 660 
628 629 662 661 
629 630 663 662 
630 631 664 663 
631 632 665 664 
632 633 666 665 
633 634 667 666 
634 635 668 667 
635 636 669 668 
636 637 670 669 
637 638 671 670 
638 639 672 671 
639 640 673 672 
640 641 674 673 
641 642 675 674 
642 643 676 675 
643 644 677 676 
644 645 678 677 
645 646 679 678 
646 647 680 679 
647 648 681 680 
648 649 682 681 
649 650 683 682 
650 651 684 683 
651 652 685 684 
652 653 686 685 
653 654 687 686 
654 655 688 687 
655 656 689 688 
656 657 690 689 
657 658 691 690 
658 659 692 691 
660 661 694 693 
661 662 695 694 
662 663 696 695 
663 664 697 696 
664 665 698 697 
665 666 699 698 
666 667 700 699 
667 668 701 700 
668 669 702 701 
669 670 703 702 
670 671 704 703 
671 672 705 704 
672 673 706 705 
673 674 707 706 
674 675 708 707 
675 676 709 708 
676 677 710 709 
677 678 711 710 
678 679 712 711 
679 680 713 712 
680 681 714 713 
681 682 715 714 
682 683 716 715 
683 684 717 716 
684 685 718 717 
685 686 719 718 
686 687 720 719 
687 688 721 720 
688 689 722 721 
689 690 723 722 
690 691 724 723 
691 692 725 724 
693 694 727 726 
694 695 728 727 
695 696 729 728 
696 697 730 729 
697 698 731 730 
698 699 732 731 
699 700 733 732 
700 701 734 733 
701 702 735 734 
702 703 736 735 
703 704 737 736 
704 705 738 737 
705 706 739 738 
706 707 740 739 
707 708 741 740 
708 709 742 741 
709 710 743 742 
710 711 744 743 
711 712 745 744 
712 713 746 745 
713 714 747 746 
714 715 748 747 
715 716 749 748 
716 717 750 749 
717 718 751 750 
718 719 752 751 
719 720 753 752 
720 721 754 753 
721 722 755 754 
722 723 756 755 
723 724 757 756 
724 725 758 757 
726 727 760 759 
727 728 761 760 
728 729 762 761 
729 730 763 762 
730 731 764 763 
731 732 765 764 
732 733 766 765 
733 734 767 766 
734 735 768 767 
735 736 769 768 
736 737 770 769 
737 738 771 770 
738 739 772 771 
739 740 773 772 
740 741 774 773 
741 742 775 774 
742 743 776 775 
743 744 777 776 
744 745 778 777 
745 746 779 778 
746 747 780 779 
747 748 781 780 
748 749 782 781 
749 750 783 782 
750 751 784 783 
751 752 785 784 
752 753 786 785 
753 754 787 786 
754 755 788 787 
755 756 789 788 
756 757 790 789 
757 758 791 790 
759 760 793 792 
760 761 794 793 
761 762 795 794 
762 763 796 795 
763 764 797 796 
764 765 798 797 
765 766 799 798 
766 767 800 799 
767 768 801 800 
768 769 802 801 
769 770 803 802 
770 771 804 803 
771 772 805 804 
772 773 806 805 
773 774 807 806 
774 775 808 807 
775 776 809 808 
776 777 810 809 
777 778 811 810 
778 779 812 811 
779 780 813 812 
780 781 814 813 
781 782 815 814 
782 783 816 815 
783 784 817 816 
784 785 818 817 
785 786 819 818 
786 787 820 819 
787 788 821 820 
788 789 822 821 
789 790 823 822 
790 791 824 823 
792 793 826 825 
793 794 827 826 
794 795 828 827 
795 796 829 828 
796 797 830 829 
797 798 831 830 
798 799 832 831 
799 800 833 832 
800 801 834 833 
801 802 835 834 
802 803 836 835 
803 804 837 836 
804 805 838 837 
805 806 839 838 
806 807 840 839 
807 808 841 840 
808 809 842 841 
809 810 843 842 
810 811 844 843 
811 812 845 844 
812 813 846 845 
813 814 847 846 
814 815 848 847 
815 816 849 848 
816 817 850 849 
817 818 851 850 
818 819 852 851 
819 820 853 852 
820 821 854 853 
821 822 855 854 
822 823 856 855 
823 824 857 856 
825 826 859 858 
826 827 860 859 
827 828 861 860 
828 829 862 861 
829 830 863 862 
830 831 864 863 
831 832 865 864 
832 833 866 865 
833 834 867 866 
834 835 868 867 
835 836 869 868 
836 837 870 869 
837 838 871 870 
838 839 872 871 
839 840 873 872 
840 841 874 873 
841 842 875 874 
842 843 876 875 
843 844 877 876 
844 845 878 877 
845 846 879 878 
846 847 880 879 
847 848 881 880 
848 849 882 881 
849 850 883 882 
850 851 884 883 
851 852 885 884 
852 853 886 885 
853 854 887 886 
854 855 888 887 
855 856 889 888 
856 857 890 889 
858 859 892 891 
859 860 893 892 
860 861 894 893 
861 862 895 894 
862 863 896 895 
863 864 897 896 
864 865 898 897 
865 866 899 898 
866 867 900 899 
867 868 901 900 
868 869 902 901 
869 870 903 902 
870 871 904 903 
871 872 905 904 
872 873 906 905 
873 874 907 906 
874 875 908 907 
875 876 909 908 
876 877 910 909 
877 878 911 910 
878 879 912 911 
879 880 913 912 
880 881 914 913 
881 882 915 914 
882 883 916 915 
883 884 917 916 
884 885 918 917 
885 886 919 918 
886 887 920 919 
887 888 921 920 
888 889 922 921 
889 890 923 922 
891 892 925 924 
892 893 926 925 
893 894 927 926 
894 895 928 927 
895 896 929 928 
896 897 930 929 
897 898 931 930 
898 899 932 931 
899 900 933 932 
900 901 934 933 
901 902 935 934 
902 903 936 935 
903 904 937 936 
904 905 938 937 
905 906 939 938 
906 907 940 939 
907 908 941 940 
908 909 942 941 
909 910 943 942 
910 911 944 943 
911 912 945 944 
912 913 946 945 
913 914 947 946 
914 915 948 947 
915 916 949 948 
916 917 950 949 
917 918 951 950 
918 919 952 951 
919 920 953 952 
920 921 954 953 
921 922 955 954 
922 923 956 955 
924 925 958 957 
925 926 959 958 
926 927 960 959 
927 928 961 960 
928 929 962 961 
929 930 963 962 
930 931 964 963 
931 932 965 964 
932 933 966 965 
933 934 967 966 
934 935 968 967 
935 936 969 968 
936 937 970 969 
937 938 971 970 
938 939 972 971 
939 940 973 972 
940 941 974 973 
941 942 975 974 
942 943 976 975 
943 944 977 976 
944 945 978 977 
945 946 979 978 
946 947 980 979 
947 948 981 980 
948 949 982 981 
949 950 983 982 
950 951 984 983 
951 952 985 984 
952 953 986 985 
953 954 987 986 
954 955 988 987 
955 956 989 988 
957 958 991 990 
958 959 992 991 
959 960 993 992 
960 961 994 993 
961 962 995 994 
962 963 996 995 
963 964 997 996 
964 965 998 997 
965 966 999 998 
966 967 1000 999 
967 968 1001 1000 
968 969 1002 1001 
969 970 1003 1002 
970 971 1004 1003 
971 972 1005 1004 
972 973 1006 1005 
973 974 1007 1006 
974 975 1008 1007 
975 976 1009 1008 
976 977 1010 1009 
977 978 1011 1010 
978 979 1012 1011 
979 980 1013 1012 
980 981 1014 1013 
981 982 1015 1014 
982 983 1016 1015 
983 984 1017 1016 
984 985 1018 1017 
985 986 1019 1018 
986 987 1020 1019 
987 988 1021 1020 
988 989 1022 1021 
990 991 1024 1023 
991 992 1025 1024 
992 993 1026 1025 
993 994 1027 1026 
994 995 1028 1027 
995 996 1029 1028 
996 997 1030 1029 
997 998 1031 1030 
998 999 1032 1031 
999 1000 1033 1032 
1000 1001 1034 1033 
1001 1002 1035 1034 
1002 1003 1036 1035 
1003 1004 1037 1036 
1004 1005 1038 1037 
1005 1006 1039 1038 
1006 1007 1040 1039 
1007 1008 1041 1040 
1008 1009 1042 1041 
1009 1010 1043 1042 
1010 1011 1044 1043 
1011 1012 1045 1044 
1012 1013 1046 1045 
1013 1014 1047 1046 
1014 1015 1048 1047 
1015 1016 1049 1048 
1016 1017 1050 1049 
1017 1018 1051 1050 
1018 1019 1052 1051 
1019 1020 1053 1052 
1020 1021 1054 1053 
1021 1022 1055 1054 
1023 1024 1057 1056 
1024 1025 1058 1057 
1025 1026 1059 1058 
1026 1027 1060 1059 
1027 1028 1061 1060 
1028 1029 1062 1061 
1029 1030 1063 1062 
1030 1031 1064 1063 
1031 1032 1065 1064 
1032 1033 1066 1065 
1033 1034 1067 1066 
1034 1035 1068 1067 
1035 1036 1069 1068 
1036 1037 1070 1069 
1037 1038 1071 1070 
1038 1039 1072 1071 
1039 1040 1073 1072 
1040 1041 1074 1073 
1041 1042 1075 1074 
1042 1043 1076 1075 
1043 1044 1077 1076 
1044 1045 1078 1077 
1045 1046 1079 1078 
1046 1047 1080 1079 
1047 1048 1081 1080 
1048 1049 1082 1081 
1049 1050 1083 1082 
1050 1051 1084 1083 
1051 1052 1085 1084 
1052 1053 1086 1085 
1053 1054 1087 1086 
1054 1055 1088 1087 
</DataArray>
<DataArray type="Int32" Name="offsets" format="ascii">
4 8 12 16 20 24 28 32 36 40 44 48 52 56 60 64 68 72 76 80 84 88 92 96 100 104 108 112 116 120 124 128 132 136 140 144 148 152 156 160 164 168 172 176 180 184 188 192 196 200 204 208 212 216 220 224 228 232 236 240 244 248 252 256 260 264 268 272 276 280 284 288 292 296 300 304 308 312 316 320 324 328 332 336 340 344 348 352 356 360 364 368 372 376 380 384 388 392 396 400 404 408 412 416 420 424 428 432 436 440 444 448 452 456 460 464 468 472 476 480 484 488 492 496 500 504 508 512 516 520 524 528 532 536 540 544 548 552 556 560 564 568 572 576 580 584 588 592 596 600 604 608 612 616 620 624 628 632 636 640 644 648 652 656 660 664 668 672 676 680 684 688 692 696 700 704 708 712 716 720 724 728 732 736 740 744 748 752 756 760 764 768 772 776 780 784 788 792 796 800 804 808 812 816 820 824 828 832 836 840 844 848 852 856 860 864 868 872 876 880 884 888 892 896 900 904 908 912 916 920 924 928 932 936 940 944 948 952 956 960 964 968 972 976 980 984 988 992 996 1000 1004 1008 1012 1016 1020 1024 1028 1032 1036 1040 1044 1048 1052 1056 1060 1064 1068 1072 1076 1080 1084 1088 1092 1096 1100 1104 1108 1112 1116 1120 1124 1128 1132 1136 1140 1144 1148 1152 1156 1160 1164 1168 1172 1176 1180 1184 1188 1192 1196 1200 1204 1208 1212 1216 1220 1224 1228 1232 1236 1240 1244 1248 1252 1256 1260 1264 1268 1272 1276 1280 1284 1288 1292 1296 1300 1304 1308 1312 1316 1320 1324 1328 1332 1336 1340 1344 1348 1352 1356 1360 1364 1368 1372 1376 1380 1384 1388 1392 1396 1400 1404 1408 1412 1416 1420 1424 1428 1432 1436 1440 1444 1448 1452 1456 1460 1464 1468 1472 1476 1480 1484 1488 1492 1496 1500 1504 1508 1512 1516 1520 1524 1528 1532 1536 1540 1544 1548 1552 1556 1560 1564 1568 1572 1576 1580 1584 1588 1592 1596 1600 1604 1608 1612 1616 1620 1624 1628 1632 1636 1640 1644 1648 1652 1656 1660 1664 1668 1672 1676 1680 1684 1688 1692 1696 1700 1704 1708 1712 1716 1720 1724 1728 1732 1736 1740 1744 1748 1752 1756 1760 1764 1768 1772 1776 1780 1784 1788 1792 1796 1800 1804 1808 1812 1816 1820 1824 1828 1832 1836 1840 1844 1848 1852 1856 1860 1864 1868 1872 1876 1880 1884 1888 1892 1896 1900 1904 1908 1912 1916 1920 1924 1928 1932 1936 1940 1944 1948 1952 1956 1960 1964 1968 1972 1976 1980 1984 1988 1992 1996 2000 2004 2008 2012 2016 2020 2024 2028 2032 2036 2040 2044 2048 2052 2056 2060 2064 2068 2072 2076 2080 2084 2088 2092 2096 2100 2104 2108 2112 2116 2120 2124 2128 2132 2136 2140 2144 2148 2152 2156 2160 2164 2168 2172 2176 2180 2184 2188 2192 2196 2200 2204 2208 2212 2216 2220 2224 2228 2232 2236 2240 2244 2248 2252 2256 2260 2264 2268 2272 2276 2280 2284 2288 2292 2296 2300 2304 2308 2312 2316 2320 2324 2328 2332 2336 2340 2344 2348 2352 2356 2360 2364 2368 2372 2376 2380 2384 2388 2392 2396 2400 2404 2408 2412 2416 2420 2424 2428 2432 2436 2440 2444 2448 2452 2456 2460 2464 2468 2472 2476 2480 2484 2488 2492 2496 2500 2504 2508 2512 2516 2520 2524 2528 2532 2536 2540 2544 2548 2552 2556 2560 2564 2568 2572 2576 2580 2584 2588 2592 2596 2600 2604 2608 2612 2616 2620 2624 2628 2632 2636 2640 2644 2648 2652 2656 2660 2664 2668 2672 2676 2680 2684 2688 2692 2696 2700 2704 2708 2712 2716 2720 2724 2728 2732 2736 2740 2744 2748 2752 2756 2760 2764 2768 2772 2776 2780 2784 2788 2792 2796 2800 2804 2808 2812 2816 2820 2824 2828 2832 2836 2840 2844 2848 2852 2856 2860 2864 2868 2872 2876 2880 2884 2888 2892 2896 2900 2904 2908 2912 2916 2920 2924 2928 2932 2936 2940 2944 2948 2952 2956 2960 2964 2968 2972 2976 2980 2984 2988 2992 2996 3000 3004 3008 3012 3016 3020 3024 3028 3032 3036 3040 3044 3048 3052 3056 3060 3064 3068 3072 3076 3080 3084 3088 3092 3096 3100 3104 3108 3112 3116 3120 3124 3128 3132 3136 3140 3144 3148 3152 3156 3160 3164 3168 3172 3176 3180 3184 3188 3192 3196 3200 3204 3208 3212 3216 3220 3224 3228 3232 3236 3240 3244 3248 3252 3256 3260 3264 3268 3272 3276 3280 3284 3288 3292 3296 3300 3304 3308 3312 3316 3320 3324 3328 3332 3336 3340 3344 3348 3352 3356 3360 3364 3368 3372 3376 3380 3384 3388 3392 3396 3400 3404 3408 3412 3416 3420 3424 3428 3432 3436 3440 3444 3448 3452 3456 3460 3464 3468 3472 3476 3480 3484 3488 3492 3496 3500 3504 3508 3512 3516 3520 3524 3528 3532 3536 3540 3544 3548 3552 3556 3560 3564 3568 3572 3576 3580 3584 3588 3592 3596 3600 3604 3608 3612 3616 3620 3624 3628 3632 3636 3640 3644 3648 3652 3656 3660 3664 3668 3672 3676 3680 3684 3688 3692 3696 3700 3704 3708 3712 3716 3720 3724 3728 3732 3736 3740 3744 3748 3752 3756 3760 3764 3768 3772 3776 3780 3784 3788 3792 3796 3800 3804 3808 3812 3816 3820 3824 3828 3832 3836 3840 3844 3848 3852 3856 3860 3864 3868 3872 3876 3880 3884 3888 3892 3896 3900 3904 3908 3912 3916 3920 3924 3928 3932 3936 3940 3944 3948 3952 3956 3960 3964 3968 3972 3976 3980 3984 3988 3992 3996 4000 4004 4008 4012 4016 4020 4024 4028 4032 4036 4040 4044 4048 4052 4056 4060 4064 4068 4072 4076 4080 4084 4088 4092 4096 
</DataArray>
<DataArray type="UInt8" Name="types" format="ascii">
9 9 9 9 9 9 9 9 9 9 9 9 9 9 9 9 9 9 9 9 9 9 9 9 9 9 9 9 9 9 9 9 9 9 9 9 9 9 9 9 9 9 9 9 9 9 9 9 9 9 9 9 9 9 9 9 9 9 9 9 9 9 9 9 9 9 9 9 9 9 9 9 9 9 9 9 9 9 9 9 9 9 9 9 9 9 9 9 9 9 9 9 9 9 9 9 9 9 9 9 9 9 9 9 9 9 9 9 9 9 9 9 9 9 9 9 9 9 9 9 9 9 9 9 9 9 9 9 9 9 9 9 9 9 9 9 9 9 9 9 9 9 9 9 9 9 9 9 9 9 9 9 9 9 9 9 9 9 9 9 9 9 9 9 9 9 9 9 9 9 9 9 9 9 9 9 9 9 9 9 9 9 9 9 9 9 9 9 9 9 9 9 9 9 9 9 9 9 9 9 9 9 9 9 9 9 9 9 9 9 9 9 9 9 9 9 9 9 9 9 9 9 9 9 9 9 9 9 9 9 9 9 9 9 9 9 9 9 9 9 9 9 9 9 9 9 9 9 9 9 9 9 9 9 9 9 9 9 9 9 9 9 9 9 9 9 9 9 9 9 9 9 9 9 9 9 9 9 9 9 9 9 9 9 9 9 9 9 9 9 9 9 9 9 9 9 9 9 9 9 9 9 9 9 9 9 9 9 9 9 9 9 9 9 9 9 9 9 9 9 9 9 9 9 9 9 9 9 9 9 9 9 9 9 9 9 9 9 9 9 9 9 9 9 9 9 9 9 9 9 9 9 9 9 9 9 9 9 9 9 9 9 9 9 9 9 9 9 9 9 9 9 9 9 9 9 9 9 9 9 9 9 9 9 9 9 9 9 9 9 9 9 9 9 9 9 9 9 9 9 9 9 9 9 9 9 9 9 9 9 9 9 9 9 9 9 9 9 9 9 9 9 9 9 9 9 9 9 9 9 9 9 9 9 9 9 9 9 9 9 9 9 9 9 9 9 9 9 9 9 9 9 9 9 9 9 9 9 9 9 9 9 9 9 9 9 9 9 9 9 9 9 9 9 9 9 9 9 9 9 9 9 9 9 9 9 9 9 9 9 9 9 9 9 9 9 9 9 9 9 9 9 9 9 9 9 9 9 9 9 9 9 9 9 9 9 9 9 9 9 9 9 9 9 9 9 9 9 9 9 9 9 9 9 9 9 9 9 9 9 9 9 9 9 9 9 9 9 9 9 9 9 9 9 9 9 9 9 9 9 9 9 9 9 9 9 9 9 9 9 9 9 9 9 9 9 9 9 9 9 9 9 9 9 9 9 9 9 9 9 9 9 9 9 9 9 9 9 9 9 9 9 9 9 9 9 9 9 9 9 9 9 9 9 9 9 9 9 9 9 9 9 9 9 9 9 9 9 9 9 9 9 9 9 9 9 9 9 9 9 9 9 9 9 9 9 9 9 9 9 9 9 9 9 9 9 9 9 9 9 9 9 9 9 9 9 9 9 9 9 9 9 9 9 9 9 9 9 9 9 9 9 9 9 9 9 9 9 9 9 9 9 9 9 9 9 9 9 9 9 9 9 9 9 9 9 9 9 9 9 9 9 9 9 9 9 9 9 9 9 9 9 9 9 9 9 9 9 9 9 9 9 9 9 9 9 9 9 9 9 9 9 9 9 9 9 9 9 9 9 9 9 9 9 9 9 9 9 9 9 9 9 9 9 9 9 9 9 9 9 9 9 9 9 9 9 9 9 9 9 9 9 9 9 9 9 9 9 9 9 9 9 9 9 9 9 9 9 9 9 9 9 9 9 9 9 9 9 9 9 9 9 9 9 9 9 9 9 9 9 9 9 9 9 9 9 9 9 9 9 9 9 9 9 9 9 9 9 9 9 9 9 9 9 9 9 9 9 9 9 9 9 9 9 9 9 9 9 9 9 9 9 9 9 9 9 9 9 9 9 9 9 9 9 9 9 9 9 9 9 9 9 9 9 9 9 9 9 9 9 9 9 9 9 9 9 9 9 9 9 9 9 9 9 9 9 9 9 9 9 9 9 9 9 9 9 9 9 9 9 9 9 9 9 9 9 9 9 9 9 9 9 9 9 9 9 9 9 9 9 9 9 9 9 9 9 9 9 9 9 9 9 9 9 9 9 9 9 9 9 9 9 9 9 9 9 9 9 9 9 9 9 9 9 9 9 9 9 9 9 9 9 9 9 9 9 9 9 9 9 9 9 9 9 9 9 9 9 9 9 9 9 9 9 9 9 9 9 9 9 9 9 9 9 9 9 9 9 9 9 9 9 9 9 
</DataArray>
</Cells>
<PointData Scalars="Concentration">
<DataArray type="Float32" Name="Concentration" NumberOfComponents="1" format="ascii">
0.364392
0.344838
0.324314
0.299271
0.247809
0.190354
0.129915
0.0743494
0.0292025
-0.00264936
-0.0207763
-0.0267248
-0.0225855
-0.00954234
0.0130989
0.0478759
0.0979874
0.165299
0.248251
0.340517
0.431071
0.505825
0.55047
0.5537
0.509844
0.420168
0.292563
0.13998
-0.0223341
-0.178461
-0.313367
-0.422897
-0.471932
-0.520182
-0.51611
-0.465015
-0.42751
-0.347409
-0.268894
-0.200053
-0.154244
-0.138565
-0.151618
-0.185503
-0.227887
-0.26614
-0.291141
-0.299753
-0.295109
-0.284671
-0.276847
-0.277438
-0.287257
-0.301766
-0.312836
-0.311905
-0.293334
-0.256699
-0.20721
-0.154202
-0.108108
-0.0778803
-0.0678975
-0.0765224
-0.110059
-0.127345
-0.202247
-0.291654
-0.364981
-0.383874
-0.423022
-0.445148
-0.455987
-0.447837
-0.414973
-0.353208
-0.261225
-0.142098
-0.00348745
0.142887
0.282764
0.401514
0.486608
0.529922
0.529393
0.489638
0.421289
0.339061
0.25886
0.194543
0.1551
0.142943
0.153911
0.179009
0.206699
0.227767
0.236043
0.225712
0.220196
0.18243
0.146232
0.128858
0.13353
0.139353
0.144045
0.135572
0.109263
0.0662181
0.0142218
-0.035021
-0.0701113
-0.0841175
-0.0772553
-0.0570005
-0.0356197
-0.025977
-0.0370837
-0.0709078
-0.121488
-0.176584
-0.221254
-0.242166
-0.231317
-0.188077
-0.119167
-0.0367372
0.0450145
0.112248
0.156427
0.174073
0.157742
0.149296
0.0818275
0.0149422
-0.0154233
0.00566425
0.0511435
0.128029
0.219826
0.310844
0.385586
0.431189
0.441012
0.415394
0.36127
0.290105
0.214923
0.147312
0.0952128
0.0620303
0.0470706
0.0469037
0.0570153
0.0731589
0.0920815
0.111624
0.13044
0.147651
0.162599
0.174825
0.184019
0.189656
0.192191
0.186959
0.184052
0.156746
0.110945
0.0603349
0.0386009
-0.00683001
-0.0457972
-0.0799706
-0.104439
-0.117868
-0.1218
-0.119171
-0.113087
-0.10524
-0.0951486
-0.0803958
-0.0577888
-0.0250033
0.0179619
0.0681259
0.119989
0.167034
0.203785
0.227684
0.240053
0.245704
0.251179
0.262076
0.280814
0.30405
0.324704
0.33463
0.307629
0.296051
0.176378
0.0215633
-0.100799
-0.108744
-0.122721
-0.080169
-0.00299869
0.0969051
0.201931
0.291054
0.347172
0.359658
0.327073
0.257348
0.165696
0.0707978
-0.00983621
-0.0640854
-0.0879002
-0.0857262
-0.0685788
-0.0503513
-0.0434536
-0.0550783
-0.0852116
-0.126923
-0.168821
-0.198985
-0.208214
-0.194007
-0.161053
-0.107864
-0.0811672
-0.00715355
0.0632091
0.108409
0.118548
0.142517
0.167522
0.203378
0.246304
0.289608
0.322488
0.334278
0.318084
0.273357
0.206582
0.129665
0.0567242
0.000373969
-0.0312828
-0.0361131
-0.0176564
0.0165089
0.0569462
0.0943021
0.12056
0.129605
0.117422
0.0824385
0.0260443
-0.0467851
-0.126777
-0.202296
-0.25906
-0.28585
-0.278872
-0.223659
-0.146534
-0.12018
-0.0666593
-0.0398696
-0.036889
-0.0571984
-0.0917279
-0.123421
-0.13498
-0.11387
-0.0572344
0.0265107
0.119855
0.20142
0.252548
0.263028
0.234097
0.177795
0.113045
0.0598462
0.0335175
0.0407335
0.0784039
0.135392
0.196266
0.246036
0.27312
0.273626
0.250714
0.20071
0.176082
0.0938612
0.0199256
-0.0152234
-0.00522505
0.0145984
0.0488944
0.0812154
0.102597
0.107694
0.0977423
0.0803383
0.0672
0.0707114
0.099948
0.157419
0.237432
0.326603
0.406459
0.45754
0.464044
0.417948
0.321621
0.188271
0.0399747
-0.0964718
-0.195136
-0.236876
-0.214186
-0.133525
-0.015217
0.112011
0.216925
0.267722
0.268205
0.184999
0.0595634
0.0137439
-0.0812136
-0.136705
-0.154905
-0.130199
-0.0673405
0.0166901
0.101165
0.165359
0.194033
0.180775
0.128803
0.0493381
-0.0418716
-0.128713
-0.198342
-0.243345
-0.261995
-0.25683
-0.232302
-0.192502
-0.139859
-0.0752847
0.000364344
0.0844966
0.170636
0.249182
0.309701
0.329691
0.338532
0.255901
0.115607
-0.0257954
-0.0668515
-0.155707
-0.216033
-0.265443
-0.303261
-0.332751
-0.359493
-0.38711
-0.417105
-0.447711
-0.473908
-0.488301
-0.482742
-0.450505
-0.388534
-0.29916
-0.190693
-0.0765097
0.0273477
0.105553
0.146986
0.147312
0.109906
0.0447825
-0.0341484
-0.112234
-0.178159
-0.224625
-0.24822
-0.25771
-0.244077
-0.21751
-0.191582
-0.185231
-0.169985
-0.158192
-0.145776
-0.134475
-0.126762
-0.125584
-0.133221
-0.149712
-0.172186
-0.195048
-0.21123
-0.214104
-0.199467
-0.166994
-0.120664
-0.0680318
-0.0185172
0.018825
0.0374929
0.0351467
0.0142364
-0.0184281
-0.0531678
-0.0798881
-0.0894682
-0.0784797
-0.0482532
0.00584152
0.0314848
0.110382
0.168159
0.175594
0.145417
0.0827949
0.0014737
-0.0801129
-0.146473
-0.18791
-0.202814
-0.196907
-0.180271
-0.163402
-0.153667
-0.153375
-0.15997
-0.168024
-0.172098
-0.169298
-0.160563
-0.150291
-0.14455
-0.148635
-0.164896
-0.191627
-0.223335
-0.25225
-0.270729
-0.272816
-0.256894
-0.226469
-0.175377
-0.150398
-0.0676623
0.0198023
0.0823472
0.0942812
0.120599
0.136524
0.153229
0.168795
0.180249
0.182154
0.168515
0.13537
0.0827133
0.0154866
-0.0569864
-0.122959
-0.171087
-0.19331
-0.186941
-0.155388
-0.107299
-0.0543886
-0.00852054
0.0211924
0.0305155
0.0209853
-0.000669418
-0.0247172
-0.0399587
-0.0390367
-0.0192249
0.0319371
0.0560442
0.157688
0.255913
0.305894
0.288349
0.250997
0.180879
0.0985341
0.0182755
-0.0472815
-0.089942
-0.107975
-0.105272
-0.0897909
-0.0710405
-0.0574706
-0.0543826
-0.0628274
-0.0797225
-0.0991105
-0.114197
-0.119586
-0.11307
-0.0964036
-0.0748062
-0.055312
-0.0444258
-0.0459224
-0.0595945
-0.0806733
-0.102778
-0.118448
-0.118496
-0.119037
-0.0872982
-0.0537756
-0.0391032
-0.0516038
-0.0751624
-0.107727
-0.134913
-0.144859
-0.130835
-0.0931226
-0.0400593
0.0143871
0.0545801
0.0678054
0.048021
-0.00246962
-0.0739071
-0.152206
-0.223257
-0.276959
-0.30965
-0.324186
-0.327763
-0.328338
-0.33107
-0.336018
-0.338032
-0.329175
-0.300815
-0.25043
-0.181723
-0.0880866
-0.0442118
0.0704709
0.151336
0.160584
0.119715
0.0336644
-0.0785242
-0.192024
-0.284044
-0.336942
-0.342238
-0.301208
-0.223454
-0.123882
-0.0190122
0.0763564
0.15143
0.200377
0.222071
0.219053
0.196204
0.159554
0.115407
0.069773
0.0279218
-0.00607952
-0.0299517
-0.043767
-0.0499182
-0.0537738
-0.0603741
-0.0743687
-0.108209
-0.122556
-0.192542
-0.251408
-0.262527
-0.222478
-0.134841
-0.00410095
0.15025
0.301852
0.424017
0.493012
0.495157
0.429846
0.310081
0.159578
0.00715867
-0.119895
-0.201719
-0.229358
-0.205116
-0.140059
-0.0498135
0.0497641
0.145698
0.229085
0.294558
0.338765
0.358947
0.352915
0.318164
0.256461
0.174828
0.0586385
0.00439659
-0.162675
-0.315555
-0.391549
-0.368694
-0.317411
-0.215767
-0.0895728
0.0449665
0.17138
0.276226
0.35106
0.392125
0.400114
0.379366
0.336953
0.281631
0.222617
0.16824
0.124648
0.0948926
0.0787159
0.0731682
0.0739027
0.0766827
0.0785484
0.0781479
0.0751779
0.0695713
0.0595604
0.0435868
0.0200353
-0.0238223
-0.0431583
-0.126076
-0.204161
-0.238429
-0.214855
-0.164802
-0.0830889
0.00929275
0.0930274
0.151744
0.175098
0.162426
0.121885
0.0675495
0.0148049
-0.0243859
-0.0447244
-0.0483545
-0.0430357
-0.0384973
-0.0423761
-0.0572258
-0.0796379
-0.101692
-0.114085
-0.109666
-0.0860966
-0.0465376
0.001635
0.0494119
0.0903415
0.1196
0.143618
0.15408
0.187436
0.241452
0.302664
0.32946
0.382325
0.419339
0.436594
0.424162
0.379098
0.306169
0.215982
0.122778
0.0408312
-0.0188474
-0.0507551
-0.0556205
-0.0395623
-0.0121089
0.0162595
0.0363599
0.0418467
0.0298426
0.000751333
-0.0424539
-0.0951343
-0.151812
-0.206735
-0.254546
-0.28993
-0.309024
-0.311024
-0.281436
-0.266935
-0.170003
-0.0447408
0.060481
0.080237
0.11952
0.121989
0.0993489
0.0512979
-0.0157849
-0.0896551
-0.155435
-0.197763
-0.204837
-0.171829
-0.102898
-0.0108529
0.0857683
0.167509
0.219284
0.234413
0.215993
0.175085
0.126358
0.0827445
0.0510955
0.0303539
0.0128156
-0.0117953
-0.0526138
-0.111889
-0.183995
-0.272586
-0.314367
-0.41155
-0.480833
-0.493245
-0.463122
-0.395169
-0.294566
-0.173519
-0.0448243
0.0770179
0.178481
0.249025
0.283212
0.282071
0.252914
0.207538
0.159127
0.118783
0.0928006
0.0815663
0.0803889
0.0818924
0.0790364
0.0676679
0.0477483
0.0229479
-0.00109183
-0.0190318
-0.0277862
-0.0275547
-0.0214552
-0.0138475
-0.0127963
-0.0123683
-0.0360456
-0.0794272
-0.129409
-0.153909
-0.208864
-0.26909
-0.33897
-0.411284
-0.476809
-0.524407
-0.543313
-0.526565
-0.47361
-0.391528
-0.294057
-0.198486
-0.121217
-0.0732847
-0.0572761
-0.0667048
-0.088123
-0.105375
-0.10465
-0.0787134
-0.0289313
0.0355322
0.100986
0.153909
0.184902
0.191796
0.179623
0.152235
0.137523
0.101002
0.0703689
0.0547893
0.0540927
0.0539851
0.0603813
0.0723584
0.0926543
0.12184
0.158793
0.199779
0.239293
0.271694
0.29284
0.301128
0.297306
0.283172
0.259778
0.226069
0.178782
0.113901
0.0292726
-0.0726403
-0.183088
-0.287429
-0.36781
-0.407625
-0.39667
-0.334036
-0.231939
-0.11172
0.00957412
0.0673928
0.133572
0.123653
0.0420643
-0.016576
-0.139297
-0.253958
-0.346845
-0.399234
-0.403233
-0.365466
-0.302045
-0.234595
-0.183627
-0.162855
-0.175841
-0.215805
-0.268499
-0.31704
-0.347056
-0.350522
-0.327227
-0.283698
-0.230228
-0.17726
-0.132373
-0.0987965
-0.075717
-0.0598844
-0.0478236
-0.0378885
-0.0296914
-0.0297576
-0.0297855
-0.0579306
-0.108459
-0.164117
-0.18489
-0.227752
-0.258345
-0.278253
-0.282644
-0.270753
-0.24603
-0.214431
-0.183154
-0.1583
-0.142886
-0.135737
-0.131714
-0.123341
-0.103384
-0.0675668
-0.0165057
0.0438474
0.103469
0.150875
0.176266
0.1742
0.145006
0.0946051
0.0327309
-0.0290343
-0.080581
-0.115101
-0.121821
-0.123964
-0.0733597
0.00283745
0.0727219
0.0879654
0.119621
0.129109
0.123567
0.101015
0.0621799
0.00988018
-0.052772
-0.122379
-0.19579
-0.269902
-0.341108
-0.404652
-0.454362
-0.483127
-0.484266
-0.453484
-0.39085
-0.302011
-0.198034
-0.093653
-0.00424072
0.0577521
0.0857368
0.0804978
0.0499877
0.00611595
-0.0370512
-0.0681772
-0.0830488
-0.078278
-0.0556807
-0.0284012
-0.0190545
0.00682854
0.0417013
0.0970564
0.176628
0.277527
0.388842
0.492284
0.566229
0.590935
0.553802
0.453125
0.299263
0.112977
-0.078609
-0.247371
-0.369584
-0.430216
-0.425295
-0.362037
-0.256852
-0.1317
-0.00954388
0.090181
0.155228
0.18234
0.176951
0.151635
0.115879
0.0965856
0.0638975
0.0356434
0.0131947
-0.00311221
-0.0371457
-0.0775899
-0.119436
-0.148108
-0.150317
-0.115438
-0.0409881
0.0654085
0.186795
0.300645
0.384806
0.423674
0.412662
0.359454
0.281547
0.20084
0.136957
0.101448
0.0946858
0.106392
0.119528
0.116272
0.0841448
0.0201473
-0.0671495
-0.161052
-0.241538
-0.27728
-0.294501
-0.208748
-0.0593755
0.0861937
0.115277
0.175151
0.181302
0.149173
0.0798049
-0.0180931
-0.127711
-0.230238
-0.306738
-0.34259
-0.331074
-0.275593
-0.189679
-0.0942468
-0.0125369
0.0360842
0.0416547
0.00668737
-0.0543766
-0.119347
-0.164866
-0.173256
-0.137454
-0.0623146
0.0378657
0.144271
0.240329
0.314136
0.363914
0.385831
0.398854
0.407492
0
0
0
0
0
0
0
0
0
0
0
0
0
0
0
0
0
0
0
0
0
0
0
0
0
0
0
0
0
0
0
</DataArray>
</PointData>
</Piece>
</UnstructuredGrid>
</VTKFile>
