<?xml version="1.0"?>
<VTKFile type="UnstructuredGrid" version="0.1" byte_order="LittleEndian">
<UnstructuredGrid>
<Piece NumberOfPoints="121" NumberOfCells="100">
<Points>
<DataArray type="Float32" NumberOfComponents="3" format="ascii">
0 0 0.0
0.1 0 0.0
0.2 0 0.0
0.3 0 0.0
0.4 0 0.0
0.5 0 0.0
0.6 0 0.0
0.7 0 0.0
0.8 0 0.0
0.9 0 0.0
1 0 0.0
0 0.1 0.0
0.1 0.1 0.0
0.2 0.1 0.0
0.3 0.1 0.0
0.4 0.1 0.0
0.5 0.1 0.0
0.6 0.1 0.0
0.7 0.1 0.0
0.8 0.1 0.0
0.9 0.1 0.0
1 0.1 0.0
0 0.2 0.0
0.1 0.2 0.0
0.2 0.2 0.0
0.3 0.2 0.0
0.4 0.2 0.0
0.5 0.2 0.0
0.6 0.2 0.0
0.7 0.2 0.0
0.8 0.2 0.0
0.9 0.2 0.0
1 0.2 0.0
0 0.3 0.0
0.1 0.3 0.0
0.2 0.3 0.0
0.3 0.3 0.0
0.4 0.3 0.0
0.5 0.3 0.0
0.6 0.3 0.0
0.7 0.3 0.0
0.8 0.3 0.0
0.9 0.3 0.0
1 0.3 0.0
0 0.4 0.0
0.1 0.4 0.0
0.2 0.4 0.0
0.3 0.4 0.0
0.4 0.4 0.0
0.5 0.4 0.0
0.6 0.4 0.0
0.7 0.4 0.0
0.8 0.4 0.0
0.9 0.4 0.0
1 0.4 0.0
0 0.5 0.0
0.1 0.5 0.0
0.2 0.5 0.0
0.3 0.5 0.0
0.4 0.5 0.0
0.5 0.5 0.0
0.6 0.5 0.0
0.7 0.5 0.0
0.8 0.5 0.0
0.9 0.5 0.0
1 0.5 0.0
0 0.6 0.0
0.1 0.6 0.0
0.2 0.6 0.0
0.3 0.6 0.0
0.4 0.6 0.0
0.5 0.6 0.0
0.6 0.6 0.0
0.7 0.6 0.0
0.8 0.6 0.0
0.9 0.6 0.0
1 0.6 0.0
0 0.7 0.0
0.1 0.7 0.0
0.2 0.7 0.0
0.3 0.7 0.0
0.4 0.7 0.0
0.5 0.7 0.0
0.6 0.7 0.0
0.7 0.7 0.0
0.8 0.7 0.0
0.9 0.7 0.0
1 0.7 0.0
0 0.8 0.0
0.1 0.8 0.0
0.2 0.8 0.0
0.3 0.8 0.0
0.4 0.8 0.0
0.5 0.8 0.0
0.6 0.8 0.0
0.7 0.8 0.0
0.8 0.8 0.0
0.9 0.8 0.0
1 0.8 0.0
0 0.9 0.0
0.1 0.9 0.0
0.2 0.9 0.0
0.3 0.9 0.0
0.4 0.9 0.0
0.5 0.9 0.0
0.6 0.9 0.0
0.7 0.9 0.0
0.8 0.9 0.0
0.9 0.9 0.0
1 0.9 0.0
0 1 0.0
0.1 1 0.0
0.2 1 0.0
0.3 1 0.0
0.4 1 0.0
0.5 1 0.0
0.6 1 0.0
0.7 1 0.0
0.8 1 0.0
0.9 1 0.0
1 1 0.0
</DataArray>
</Points>
<Cells>
<DataArray type="Int32" Name="connectivity" format="ascii">
0 1 12 11 
1 2 13 12 
2 3 14 13 
3 4 15 14 
4 5 16 15 
5 6 17 16 
6 7 18 17 
7 8 19 18 
8 9 20 19 
9 10 21 20 
11 12 23 22 
12 13 24 23 
13 14 25 24 
14 15 26 25 
15 16 27 26 
16 17 28 27 
17 18 29 28 
18 19 30 29 
19 20 31 30 
20 21 32 31 
22 23 34 33 
23 24 35 34 
24 25 36 35 
25 26 37 36 
26 27 38 37 
27 28 39 38 
28 29 40 39 
29 30 41 40 
30 31 42 41 
31 32 43 42 
33 34 45 44 
34 35 46 45 
35 36 47 46 
36 37 48 47 
37 38 49 48 
38 39 50 49 
39 40 51 50 
40 41 52 51 
41 42 53 52 
42 43 54 53 
44 45 56 55 
45 46 57 56 
46 47 58 57 
47 48 59 58 
48 49 60 59 
49 50 61 60 
50 51 62 61 
51 52 63 62 
52 53 64 63 
53 54 65 64 
55 56 67 66 
56 57 68 67 
57 58 69 68 
58 59 70 69 
59 60 71 70 
60 61 72 71 
61 62 73 72 
62 63 74 73 
63 64 75 74 
64 65 76 75 
66 67 78 77 
67 68 79 78 
68 69 80 79 
69 70 81 80 
70 71 82 81 
71 72 83 82 
72 73 84 83 
73 74 85 84 
74 75 86 85 
75 76 87 86 
77 78 89 88 
78 79 90 89 
79 80 91 90 
80 81 92 91 
81 82 93 92 
82 83 94 93 
83 84 95 94 
84 85 96 95 
85 86 97 96 
86 87 98 97 
88 89 100 99 
89 90 101 100 
90 91 102 101 
91 92 103 102 
92 93 104 103 
93 94 105 104 
94 95 106 105 
95 96 107 106 
96 97 108 107 
97 98 109 108 
99 100 111 110 
100 101 112 111 
101 102 113 112 
102 103 114 113 
103 104 115 114 
104 105 116 115 
105 106 117 116 
106 107 118 117 
107 108 119 118 
108 109 120 119 
</DataArray>
<DataArray type="Int32" Name="offsets" format="ascii">
4 8 12 16 20 24 28 32 36 40 44 48 52 56 60 64 68 72 76 80 84 88 92 96 100 104 108 112 116 120 124 128 132 136 140 144 148 152 156 160 164 168 172 176 180 184 188 192 196 200 204 208 212 216 220 224 228 232 236 240 244 248 252 256 260 264 268 272 276 280 284 288 292 296 300 304 308 312 316 320 324 328 332 336 340 344 348 352 356 360 364 368 372 376 380 384 388 392 396 400 
</DataArray>
<DataArray type="UInt8" Name="types" format="ascii">
9 9 9 9 9 9 9 9 9 9 9 9 9 9 9 9 9 9 9 9 9 9 9 9 9 9 9 9 9 9 9 9 9 9 9 9 9 9 9 9 9 9 9 9 9 9 9 9 9 9 9 9 9 9 9 9 9 9 9 9 9 9 9 9 9 9 9 9 9 9 9 9 9 9 9 9 9 9 9 9 9 9 9 9 9 9 9 9 9 9 9 9 9 9 9 9 9 9 9 9 
</DataArray>
</Cells>
<PointData Scalars="Concentration">
<DataArray type="Float32" Name="Concentration" NumberOfComponents="1" format="ascii">
0.33045
0.315305
0.299087
0.278948
0.237032
0.188232
0.133957
0.0803071
0.0328236
-0.00653112
-0.0239508
-0.0404852
-0.0340873
-0.0055001
0.0182993
0.0712519
0.134397
0.207104
0.281777
0.350778
0.410573
0.43707
0.463283
0.448792
0.393716
0.347715
0.246754
0.128371
-0.00412788
-0.136145
-0.253165
-0.351469
-0.396113
-0.446564
-0.457929
-0.431587
-0.408431
-0.357169
-0.302406
-0.248341
-0.201893
-0.168486
-0.153847
-0.147826
-0.171549
-0.213399
-0.255125
-0.266122
-0.290095
-0.304497
-0.314317
-0.318547
-0.317797
-0.30855
-0.303781
-0.275199
-0.234993
-0.196318
-0.182876
-0.154662
-0.132907
-0.115488
-0.10627
-0.106406
-0.126108
-0.135836
-0.200039
-0.286028
-0.362331
-0.381955
-0.422522
-0.442997
-0.449327
-0.43662
-0.406015
-0.33487
-0.30058
-0.138012
0.0664173
0.241006
0.285241
0.378209
0.432403
0.468864
0.483529
0.478929
0.448769
0.43361
0.358819
0.271683
0.205538
0.195877
0.175333
0.173584
0.178417
0.187281
0.196435
0.201044
0.203219
0.193422
0.174407
0.153518
0.146056
0.129805
0.116164
0.102997
0.091233
0.0815659
0.0737306
0.0700477
0.0671579
0.064498
0
0
0
0
0
0
0
0
0
</DataArray>
</PointData>
</Piece>
</UnstructuredGrid>
</VTKFile>
